<svg xmlns="http://www.w3.org/2000/svg" viewBox="0 0 30 30" width="100" height="100">
  <title>iX</title>
  <path d="M11.92,30H5L17.31,12.21,14.72,3.43h6.37l.64,2.25,1.56-2.25H30l-6.24,9,3.52,11.93H20.91L19.37,19Zm-5-1h4.46L19.77,16.6l1.92,6.74h4.22l-3.27-11.1L28,4.44H23.83L21.33,8l-1-3.59H16.09l2.34,7.95Zm-.1-4.69H0L9.33,10.84h6.81ZM2,23.28H6.27L14.2,11.86H9.88ZM13,9A4.54,4.54,0,0,1,8.44,4.5,4.54,4.54,0,0,1,13,0a4.59,4.59,0,0,1,3.14,1.23l.1.09-.91.95-.1-.09A3.26,3.26,0,0,0,13,1.3,3.23,3.23,0,0,0,9.77,4.5,3.23,3.23,0,0,0,13,7.7a3.28,3.28,0,0,0,1.17-.21l.13,0,.48,1.22-.13,0A4.62,4.62,0,0,1,13,9Z" fill="#c92a2a"/>
</svg>
