<?xml version="1.0" encoding="UTF-8" standalone="no"?>
<!-- Created with Inkscape (http://www.inkscape.org/) -->

<svg
   version="1.1"
   id="svg1"
   width="877.8667"
   height="358.39999"
   viewBox="0 0 877.8667 358.39999"
   xmlns="http://www.w3.org/2000/svg"
   xmlns:svg="http://www.w3.org/2000/svg">
  <defs
     id="defs1" />
  <g
     id="g1">
    <path
       style="fill:#000000"
       d="m 14.054595,349.0771 c -0.29235,-0.47304 6.41055,-37.31304 14.89533,-81.86666 8.48479,-44.55363 21.17566,-110.90191 28.20194,-147.44062 9.73616,-50.630871 12.77506,-68.468421 12.77506,-74.986301 0,-5.40077 -0.57229,-9.65895 -1.55302,-11.55547 -0.85415,-1.65176 -3.13415,-3.74476 -5.06666,-4.65111 -1.93251,-0.90636 -5.49774,-2.17453 -7.92274,-2.81816 -2.42499,-0.64363 -5.02376,-1.91089 -5.77504,-2.81613 -0.99049,-1.19346 -1.09795,-2.73068 -0.39092,-5.59234 0.97504,-3.94646 0.97504,-3.94646 10.04171,-4.64059 4.98667,-0.38178 22.40209,-0.74177 38.70093,-0.8 22.808505,-0.0815 30.424855,0.22876 33.066665,1.34691 1.88783,0.79903 4.3424,2.47417 5.45462,3.72253 1.15582,1.29731 2.23341,4.46786 2.51519,7.40033 0.27114,2.82182 -0.31066,10.62668 -1.29288,17.34414 -0.98223,6.71745 -4.87406,28.74591 -8.64853,48.95212 -3.77446,20.206211 -6.86266,37.858091 -6.86266,39.226401 0,1.72006 0.88693,2.82504 2.87394,3.5805 1.81698,0.69082 15.92611,0.97533 38.36334,0.7736 30.38559,-0.27318 35.72761,-0.55748 37.14578,-1.97688 0.93328,-0.93409 2.78367,-7.45325 4.23864,-14.93333 1.42025,-7.30154 3.41101,-19.174961 4.42392,-26.385381 1.72837,-12.30349 1.7312,-13.34146 0.046,-16.87536 -1.41968,-2.97709 -3.25296,-4.42629 -8.75576,-6.92138 -3.82806,-1.73573 -7.23142,-3.86289 -7.56302,-4.72702 -0.3316,-0.86413 -0.31042,-2.73651 0.0471,-4.16085 0.35749,-1.42433 1.47213,-3.41184 2.47698,-4.4167 1.66162,-1.66162 4.29278,-1.77371 29.06507,-1.23823 18.56535,0.40131 28.57172,1.0442 31.42664,2.01909 3.22393,1.1009 4.75931,2.513 6.66667,6.13141 1.56544,2.96975 2.47153,6.5053 2.4603,9.6 -0.01,2.69439 -2.65252,20.2589 -5.87275,39.032231 -3.22023,18.77333 -8.71938,51.41333 -12.22033,72.53333 -3.50095,21.12 -7.33821,43.43905 -8.52725,49.59789 -1.18904,6.15883 -2.16189,14.50218 -2.16189,18.54076 0,5.47999 0.54097,8.21818 2.13231,10.79302 1.17276,1.89758 4.09311,4.74775 6.48966,6.33371 2.39654,1.58596 7.55701,3.55975 11.46769,4.3862 3.91069,0.82645 19.35034,1.99308 34.31034,2.59251 14.96,0.59943 34.23994,1.58637 42.84432,2.19321 8.60437,0.60683 19.80248,1.77645 24.88468,2.59915 5.0822,0.82271 10.48547,2.31165 12.00727,3.30878 2.48981,1.63138 2.59099,1.94159 1.01033,3.0974 -1.16007,0.84826 -9.46359,1.52031 -24.45159,1.979 -12.48226,0.382 -31.57501,1.41395 -42.42834,2.29321 -10.85334,0.87926 -26.21334,2.35044 -34.13334,3.2693 -7.92,0.91886 -23.14769,3.07591 -33.83932,4.79346 -10.69162,1.71755 -28.21162,4.83868 -38.93333,6.93586 -10.72171,2.09717 -30.05402,6.23282 -42.96068,9.19033 -12.90667,2.95751 -32.82667,7.76857 -44.26667,10.69125 -11.439995,2.92267 -36.560735,9.83443 -55.823855,15.35946 -19.26311,5.52502 -36.15478,10.0455 -37.53705,10.0455 -1.38226,0 -2.7524,-0.38704 -3.04476,-0.86008 z M 119.52692,299.14479 c 13.49334,-3.28648 32.21334,-7.53628 41.60001,-9.444 16.57231,-3.36811 17.05691,-3.54237 16.72999,-6.0161 -0.18517,-1.40113 -0.58846,-6.62782 -0.8962,-11.61487 -0.3495,-5.66366 0.1023,-13.87197 1.20357,-21.86667 0.9697,-7.03962 4.14647,-24.76183 7.05948,-39.38269 3.78372,-18.99107 4.96829,-26.91182 4.14761,-27.73333 -0.76609,-0.76688 -13.71746,-1.25165 -38.87913,-1.45525 -35.44537,-0.28681 -37.76604,-0.18992 -38.31923,1.6 -0.32388,1.04791 -3.45948,17.0253 -6.96801,35.5053 -3.50852,18.48 -8.563075,45.28311 -11.232355,59.56246 -2.66927,14.27936 -4.58212,26.40112 -4.25077,26.93725 0.33135,0.53613 1.65303,0.7292 2.93708,0.42905 1.28404,-0.30016 13.374625,-3.23467 26.867955,-6.52115 z m 698.10071,-80.91623 c -2.658,-0.85404 -6.7989,-3.23586 -9.2022,-5.29293 -2.4032,-2.05706 -5.3512,-5.82863 -6.5511,-8.38126 -1.1998,-2.55263 -2.6989,-8.36048 -3.3311,-12.90635 -0.6323,-4.54586 -1.1496,-17.01447 -1.1496,-27.70802 0,-13.69997 0.3781,-19.82089 1.28,-20.72282 0.757,-0.75699 4.3979,-1.28 8.9107,-1.28 7.6308,0 7.6308,0 8.4047,25.30348 0.5246,17.15553 1.2347,26.40657 2.2052,28.72915 0.801,1.91715 2.9539,4.21305 4.8889,5.21369 2.3003,1.18951 4.8628,1.59953 7.6556,1.22495 2.3088,-0.30969 5.3515,-1.64677 6.7614,-2.97129 1.4098,-1.32453 3.04,-4.12387 3.6225,-6.22077 0.5825,-2.0969 1.0691,-13.89254 1.0814,-26.21254 0.012,-12.32 0.4172,-23.0226 0.8999,-23.78355 0.6221,-0.98071 3.1796,-1.29128 8.7837,-1.06667 7.906,0.31688 7.906,0.31688 7.5143,28.58355 -0.2692,19.43194 -0.8109,29.29107 -1.7332,31.54424 -0.7379,1.80267 -2.9184,5.0735 -4.8457,7.26851 -1.9272,2.19501 -5.9473,5.23868 -8.9334,6.76373 -4.0909,2.08925 -7.4015,2.85845 -13.4294,3.12025 -5.0034,0.21731 -9.8101,-0.23418 -12.8326,-1.20535 z m -550.32984,-1.55459 c -0.69614,-1.30076 -1.10419,-14.86778 -1.10419,-36.71276 0,-19.05725 0.29135,-35.40881 0.64745,-36.33679 0.50842,-1.32492 2.31638,-1.68724 8.41921,-1.68724 5.26705,0 7.91634,0.42971 8.22036,1.33333 0.24673,0.73334 0.16953,17.41334 -0.17156,37.06667 -0.34109,19.65333 -0.99993,36.33333 -1.4641,37.06667 -0.51958,0.82089 -3.26505,1.33333 -7.14345,1.33333 -5.13647,0 -6.50338,-0.38092 -7.40372,-2.06321 z m 31.60692,1.3521 c -0.39111,-0.39111 -0.71111,-17.67111 -0.71111,-38.4 0,-37.68889 0,-37.68889 10.51731,-37.68889 10.51732,0 10.51732,0 18.93334,19.30636 4.62881,10.6185 8.89602,19.31299 9.48268,19.3211 0.58667,0.008 4.55745,-8.29809 8.82396,-18.45821 4.2665,-10.16012 8.3465,-18.84727 9.06666,-19.30477 0.72016,-0.4575 5.75545,-0.83916 11.18952,-0.84815 9.88014,-0.0163 9.88014,-0.0163 9.6,38.117 -0.28014,38.13334 -0.28014,38.13334 -7.03993,38.45332 -4.0655,0.19244 -7.3604,-0.17848 -8.26667,-0.93061 -1.18274,-0.98158 -1.51038,-4.95096 -1.5232,-18.45331 -0.009,-9.4615 -0.46662,-17.91487 -1.01697,-18.78527 -0.79446,-1.25646 -1.3232,-0.81689 -2.56611,2.13333 -0.861,2.04373 -3.72539,8.75588 -6.36531,14.91588 -4.79985,11.2 -4.79985,11.2 -10.48423,11.96094 -3.12641,0.41852 -6.30887,0.54419 -7.07212,0.27927 -0.76326,-0.26492 -2.2678,-2.52735 -3.34343,-5.02761 -1.07563,-2.50027 -3.9834,-9.22594 -6.46173,-14.94594 -2.47832,-5.72 -4.93378,-10.4 -5.45657,-10.4 -0.5228,0 -0.95053,8.58865 -0.95053,19.08588 0,16.41984 -0.23569,19.17632 -1.68724,19.73333 -0.92799,0.35611 -4.44799,0.64746 -7.82223,0.64746 -3.37424,0 -6.45498,-0.32 -6.84609,-0.71111 z m 92.12642,-1.3521 c -0.69615,-1.30076 -1.1042,-14.86778 -1.1042,-36.71276 0,-19.05725 0.29136,-35.40881 0.64746,-36.33679 0.52597,-1.37065 2.50293,-1.68724 10.53606,-1.68724 6.90022,0 10.24252,0.42644 11.0597,1.41109 0.64411,0.7761 4.32127,8.5761 8.17147,17.33333 3.8502,8.75724 7.66078,16.5839 8.46794,17.39258 1.24641,1.24876 1.7855,0.84691 3.57734,-2.66667 1.16038,-2.27535 4.62055,-10.137 7.68927,-17.47033 3.06873,-7.33333 6.05931,-13.93333 6.64574,-14.66667 0.71477,-0.89382 4.32044,-1.33333 10.93836,-1.33333 7.05221,0 10.21816,0.41695 11.08356,1.4597 0.86472,1.04193 1.13107,11.95587 0.93061,38.13333 -0.28084,36.67364 -0.28084,36.67364 -8.56365,36.98546 -6.05097,0.2278 -8.40334,-0.0596 -8.73011,-1.06666 -0.24602,-0.75818 -0.76985,-9.4185 -1.16407,-19.24516 -0.39423,-9.82667 -1.09001,-17.86667 -1.54618,-17.86667 -0.45618,0 -3.34186,5.88 -6.41263,13.06667 -3.07077,7.18666 -6.08258,13.68759 -6.69291,14.4465 -0.74336,0.92432 -3.23734,1.27646 -7.55465,1.06667 -6.44495,-0.31317 -6.44495,-0.31317 -12.7575,-14.96448 -3.4719,-8.05822 -6.73553,-14.3899 -7.25251,-14.07038 -0.51698,0.31951 -0.93996,8.26415 -0.93996,17.65476 0,9.7296 -0.47497,17.96132 -1.1042,19.13705 -0.91592,1.71142 -2.27358,2.06321 -7.96247,2.06321 -5.68889,0 -7.04655,-0.35179 -7.96247,-2.06321 z m 92.86144,1.08028 c -1.26709,-0.80216 -1.38253,-6.65976 -0.7407,-37.58366 0.41818,-20.14838 1.12725,-37.00301 1.5757,-37.45475 0.44846,-0.45173 11.34177,-0.69173 24.20737,-0.53333 23.392,0.288 23.392,0.288 23.7113,7.65919 0.22421,5.17573 -0.0935,7.63303 -1.06666,8.25033 -0.76229,0.48353 -7.71656,0.8865 -15.45395,0.89548 -14.06798,0.0163 -14.06798,0.0163 -14.769,4.69109 -0.38556,2.57112 -0.52951,5.57112 -0.31989,6.66667 0.34235,1.78921 1.791,2.04618 14.23567,2.52524 13.85453,0.53334 13.85453,0.53334 13.85453,8 0,7.46667 0,7.46667 -13.15613,8 -11.57119,0.46909 -13.3438,0.79034 -14.71402,2.66667 -0.91987,1.25963 -1.42929,3.88074 -1.24388,6.4 0.31403,4.26667 0.31403,4.26667 16.81557,4.8 16.50154,0.53333 16.50154,0.53333 17.4194,5.18447 0.50483,2.55812 0.64785,5.72695 0.31783,7.04184 -0.53561,2.13406 -1.47822,2.46495 -8.78033,3.0822 -4.49917,0.38032 -15.42789,0.68414 -24.28604,0.67516 -8.85816,-0.009 -16.7812,-0.44396 -17.60677,-0.9666 z m 62.47881,0.27182 c -0.39111,-0.39111 -0.71111,-17.67111 -0.71111,-38.4 0,-37.68889 0,-37.68889 9.06667,-37.68889 9.06667,0 9.06667,0 9.06667,28.66939 0,22.38779 0.30728,28.92442 1.40245,29.83333 0.80725,0.66995 7.25812,1.29125 15.2,1.46394 13.79755,0.30001 13.79755,0.30001 14.40699,7.23334 0.3352,3.81333 0.15642,7.53333 -0.39727,8.26667 -0.75112,0.99481 -6.8864,1.33333 -24.165,1.33333 -12.73706,0 -23.47828,-0.32 -23.8694,-0.71111 z m 56.99121,-0.1843 c -1.26211,-0.87106 -1.37734,-6.79611 -0.73258,-37.66912 0.42081,-20.14951 1.16454,-37.04124 1.65273,-37.53718 0.4882,-0.49595 9.93786,-0.73595 20.99925,-0.53334 17.76555,0.32541 20.60934,0.62445 24.37829,2.56352 2.90436,1.49426 5.03296,3.69503 6.66666,6.89269 1.70227,3.33186 2.40149,6.56998 2.40529,11.13819 0,3.54236 -0.82018,8.74359 -1.82906,11.5583 -1.48163,4.13368 -1.58081,5.46676 -0.51581,6.93334 0.72518,0.99862 2.25767,3.73568 3.40557,6.08234 1.148,2.34667 2.095,6.18667 2.1046,8.53334 0.01,2.34666 -0.4783,6.05176 -1.0842,8.23354 -0.6059,2.18178 -2.3808,5.48705 -3.94424,7.34504 -1.5634,1.85799 -4.54495,4.09277 -6.62567,4.96618 -2.75113,1.15482 -9.45721,1.71606 -24.58314,2.05741 -12.5032,0.28217 -21.39741,0.0571 -22.29769,-0.56425 z m 37.13667,-17.68587 c 1.24449,-1.12625 2.22768,-3.3287 2.22768,-4.99022 0,-1.86426 -0.88471,-3.59387 -2.37067,-4.63468 -1.65232,-1.15733 -4.88451,-1.66049 -10.66667,-1.66049 -8.29599,0 -8.29599,0 -8.29599,6.22223 0,3.42222 0.36,6.58648 0.8,7.0317 0.44,0.44521 4.23754,0.63803 8.43899,0.42848 5.60724,-0.27967 8.23148,-0.9172 9.86666,-2.39702 z m -5.88294,-29.36703 c 2.28582,-0.53024 4.55847,-1.59879 5.05033,-2.37455 0.49186,-0.77576 0.90164,-2.6717 0.91063,-4.2132 0.009,-1.5415 -0.5971,-3.31182 -1.34684,-3.93406 -0.74975,-0.62223 -5.06975,-1.46721 -9.6,-1.87773 -8.23683,-0.7464 -8.23683,-0.7464 -8.23683,5.62295 0,3.50314 0.32,6.68934 0.71111,7.08046 0.39111,0.39111 2.43111,0.69966 4.53333,0.68566 2.10223,-0.014 5.69245,-0.45928 7.97827,-0.98953 z m 42.31491,46.9881 c -4.1044,-0.55529 -4.8533,-1.06245 -5.6702,-3.83979 -0.521,-1.77104 -0.6386,-18.18419 -0.2634,-36.75534 0.3728,-18.45544 0.9127,-33.93544 1.1999,-34.4 0.2871,-0.46456 4.0937,-0.84466 8.459,-0.84466 4.3654,0 8.0377,0.12 8.1606,0.26667 0.1229,0.14666 0.4829,13.46666 0.8,29.6 0.5765,29.33333 0.5765,29.33333 15.5098,29.86666 14.9333,0.53334 14.9333,0.53334 15.2526,7.90452 0.2243,5.17574 -0.093,7.63303 -1.0666,8.25033 -0.7623,0.48353 -9.546,0.81441 -19.5193,0.73528 -9.9734,-0.0791 -20.2614,-0.43178 -22.8624,-0.78367 z m 49.7957,-0.16769 c -1.0267,-0.61129 -1.8667,-1.84392 -1.8667,-2.73918 0,-0.89526 5.7739,-17.29163 12.8308,-36.43639 7.0569,-19.14475 13.4169,-35.1912 14.1333,-35.65878 0.7165,-0.46757 5.1303,-0.72734 9.8085,-0.57727 8.506,0.27285 8.506,0.27285 13.5911,14.13952 2.7968,7.62667 8.4491,23.62122 12.5607,35.54345 4.1116,11.92223 7.4756,22.54625 7.4756,23.60893 0,1.10202 -1.0311,2.20847 -2.4,2.57531 -1.32,0.35375 -4.6407,0.64973 -7.3794,0.65774 -2.7387,0.008 -5.714,-0.26732 -6.6118,-0.61185 -0.8979,-0.34454 -2.4312,-3.10454 -3.4075,-6.13334 -0.9763,-3.0288 -2.5327,-6.10691 -3.4587,-6.84024 -1.0869,-0.86079 -5.3768,-1.33333 -12.1044,-1.33333 -6.9829,0 -10.8181,0.43986 -11.6254,1.33333 -0.6626,0.73333 -2.244,3.97333 -3.5142,7.2 -2.3094,5.86667 -2.3094,5.86667 -9.2373,6.1251 -3.8104,0.14214 -7.7679,-0.24172 -8.7946,-0.853 z m 38.3209,-31.16258 c 1.001,-1.02182 0.7698,-2.83275 -1.0524,-8.24285 -1.3953,-4.14276 -2.9394,-6.93334 -3.8363,-6.93334 -0.9076,0 -2.4971,2.95232 -4.0198,7.4665 -2.3922,7.09163 -2.424,7.53676 -0.6322,8.86623 1.123,0.83325 3.1758,1.14745 5.0722,0.77636 1.7521,-0.34285 3.763,-1.21266 4.4685,-1.9329 z"
       id="path1" />
  </g>
</svg>
